<svg width="24" height="24" viewBox="0 0 24 24" fill="none" xmlns="http://www.w3.org/2000/svg">
<path d="M21.8774 0H2.12264C0.950339 0 0 0.950339 0 2.12264V21.8774C0 23.0497 0.950339 24 2.12264 24H21.8774C23.0497 24 24 23.0497 24 21.8774V2.12264C24 0.950339 23.0497 0 21.8774 0Z" fill="#231F20"/>
<path d="M7.21934 15.7948L6.17924 18.8019H4L8.07547 7H10.842L15.0873 18.8019H12.7524L11.6698 15.7948H7.21934ZM11.1675 13.9764C10.2335 11.2736 9.66745 9.66745 9.39859 8.66274C9.08726 9.73113 8.46462 11.6557 7.71462 13.9764H11.1675Z" fill="white"/>
<path d="M17.2146 5.75946H19.3372V7.83257H17.2146V5.75946ZM17.2146 9.46701H19.3372V18.2406H17.2146V9.46701Z" fill="white"/>
</svg>
