<svg width="50" height="50" viewBox="0 0 50 50" fill="none" xmlns="http://www.w3.org/2000/svg">
<g clip-path="url(#clip0_84_708)">
<path d="M25 15.2344C23.0685 15.2344 21.1805 15.8071 19.5745 16.8802C17.9686 17.9532 16.7169 19.4784 15.9777 21.2629C15.2386 23.0473 15.0452 25.0108 15.422 26.9052C15.7988 28.7995 16.7289 30.5396 18.0947 31.9053C19.4604 33.2711 21.2005 34.2012 23.0948 34.578C24.9892 34.9548 26.9527 34.7614 28.7371 34.0223C30.5216 33.2831 32.0468 32.0314 33.1198 30.4255C34.1929 28.8195 34.7656 26.9315 34.7656 25C34.7656 22.41 33.7368 19.9261 31.9053 18.0947C30.0739 16.2633 27.59 15.2344 25 15.2344ZM25 32.4219C23.5321 32.4219 22.0972 31.9866 20.8766 31.1711C19.6561 30.3555 18.7048 29.1964 18.1431 27.8402C17.5813 26.4841 17.4344 24.9918 17.7207 23.5521C18.0071 22.1124 18.714 20.7899 19.7519 19.7519C20.7899 18.714 22.1124 18.0071 23.5521 17.7207C24.9918 17.4344 26.4841 17.5813 27.8402 18.1431C29.1964 18.7048 30.3555 19.6561 31.1711 20.8766C31.9866 22.0971 32.4219 23.5321 32.4219 25C32.4219 26.9684 31.6399 28.8562 30.2481 30.2481C28.8562 31.6399 26.9684 32.4219 25 32.4219Z" fill="black"/>
<path d="M47.2656 18.75H43.7773C43.6961 18.7494 43.6171 18.7235 43.5513 18.6759C43.4855 18.6283 43.4361 18.5613 43.4102 18.4844C43.1831 17.8396 42.9224 17.2072 42.6289 16.5898C42.5923 16.517 42.5794 16.4345 42.592 16.354C42.6046 16.2734 42.6421 16.1988 42.6992 16.1406L45.1641 13.6719C45.418 13.418 45.6194 13.1165 45.7569 12.7847C45.8943 12.453 45.965 12.0974 45.965 11.7383C45.965 11.3792 45.8943 11.0236 45.7569 10.6918C45.6194 10.36 45.418 10.0586 45.1641 9.80469L40.1914 4.83594C39.9375 4.582 39.636 4.38056 39.3043 4.24313C38.9725 4.10569 38.6169 4.03496 38.2578 4.03496C37.8987 4.03496 37.5431 4.10569 37.2113 4.24313C36.8796 4.38056 36.5781 4.582 36.3242 4.83594L33.8594 7.30078C33.8012 7.35792 33.7266 7.39542 33.646 7.40803C33.5655 7.42064 33.483 7.40773 33.4102 7.37109C32.7928 7.07755 32.1604 6.81677 31.5156 6.58984C31.4387 6.56385 31.3717 6.51452 31.3241 6.44871C31.2765 6.3829 31.2506 6.30388 31.25 6.22266V2.73438C31.25 2.00917 30.9619 1.31367 30.4491 0.80088C29.9363 0.288085 29.2408 0 28.5156 0H21.4844C20.7592 0 20.0637 0.288085 19.5509 0.80088C19.0381 1.31367 18.75 2.00917 18.75 2.73438V6.22266C18.7494 6.30388 18.7235 6.3829 18.6759 6.44871C18.6283 6.51452 18.5613 6.56385 18.4844 6.58984C17.8396 6.81686 17.2072 7.07764 16.5898 7.37109C16.517 7.40773 16.4345 7.42064 16.354 7.40803C16.2734 7.39542 16.1988 7.35792 16.1406 7.30078L13.6719 4.83594C13.418 4.582 13.1165 4.38056 12.7847 4.24313C12.453 4.10569 12.0974 4.03496 11.7383 4.03496C11.3792 4.03496 11.0236 4.10569 10.6918 4.24313C10.36 4.38056 10.0586 4.582 9.80469 4.83594L4.83594 9.80859C4.582 10.0625 4.38056 10.364 4.24313 10.6957C4.10569 11.0275 4.03496 11.3831 4.03496 11.7422C4.03496 12.1013 4.10569 12.4569 4.24313 12.7887C4.38056 13.1204 4.582 13.4219 4.83594 13.6758L7.30078 16.1406C7.35792 16.1988 7.39542 16.2734 7.40803 16.354C7.42064 16.4345 7.40773 16.517 7.37109 16.5898C7.07755 17.2072 6.81677 17.8396 6.58984 18.4844C6.56385 18.5613 6.51452 18.6283 6.44871 18.6759C6.3829 18.7235 6.30388 18.7494 6.22266 18.75H2.73438C2.00917 18.75 1.31367 19.0381 0.80088 19.5509C0.288085 20.0637 0 20.7592 0 21.4844L0 28.5156C0 29.2408 0.288085 29.9363 0.80088 30.4491C1.31367 30.9619 2.00917 31.25 2.73438 31.25H6.22266C6.30388 31.2506 6.3829 31.2765 6.44871 31.3241C6.51452 31.3717 6.56385 31.4387 6.58984 31.5156C6.81686 32.1604 7.07764 32.7928 7.37109 33.4102C7.40773 33.483 7.42064 33.5655 7.40803 33.646C7.39542 33.7266 7.35792 33.8012 7.30078 33.8594L4.83594 36.3281C4.582 36.582 4.38056 36.8835 4.24313 37.2153C4.10569 37.547 4.03496 37.9026 4.03496 38.2617C4.03496 38.6208 4.10569 38.9764 4.24313 39.3082C4.38056 39.64 4.582 39.9414 4.83594 40.1953L9.80859 45.168C10.0625 45.4219 10.364 45.6233 10.6957 45.7608C11.0275 45.8982 11.3831 45.9689 11.7422 45.9689C12.1013 45.9689 12.4569 45.8982 12.7887 45.7608C13.1204 45.6233 13.4219 45.4219 13.6758 45.168L16.1406 42.7031C16.1988 42.646 16.2734 42.6085 16.354 42.5959C16.4345 42.5833 16.517 42.5962 16.5898 42.6328C17.2072 42.9264 17.8396 43.1871 18.4844 43.4141C18.5613 43.4401 18.6283 43.4894 18.6759 43.5552C18.7235 43.621 18.7494 43.7 18.75 43.7812V47.2656C18.75 47.9908 19.0381 48.6863 19.5509 49.1991C20.0637 49.7119 20.7592 50 21.4844 50H28.5156C29.2408 50 29.9363 49.7119 30.4491 49.1991C30.9619 48.6863 31.25 47.9908 31.25 47.2656V43.7773C31.2506 43.6961 31.2765 43.6171 31.3241 43.5513C31.3717 43.4855 31.4387 43.4361 31.5156 43.4102C32.1604 43.1831 32.7928 42.9224 33.4102 42.6289C33.483 42.5923 33.5655 42.5794 33.646 42.592C33.7266 42.6046 33.8012 42.6421 33.8594 42.6992L36.3281 45.1641C36.582 45.418 36.8835 45.6194 37.2153 45.7569C37.547 45.8943 37.9026 45.965 38.2617 45.965C38.6208 45.965 38.9764 45.8943 39.3082 45.7569C39.64 45.6194 39.9414 45.418 40.1953 45.1641L45.168 40.1914C45.4219 39.9375 45.6233 39.636 45.7608 39.3043C45.8982 38.9725 45.9689 38.6169 45.9689 38.2578C45.9689 37.8987 45.8982 37.5431 45.7608 37.2113C45.6233 36.8796 45.4219 36.5781 45.168 36.3242L42.7031 33.8594C42.646 33.8012 42.6085 33.7266 42.5959 33.646C42.5833 33.5655 42.5962 33.483 42.6328 33.4102C42.9264 32.7928 43.1871 32.1604 43.4141 31.5156C43.4401 31.4387 43.4894 31.3717 43.5552 31.3241C43.621 31.2765 43.7 31.2506 43.7812 31.25H47.2656C47.9908 31.25 48.6863 30.9619 49.1991 30.4491C49.7119 29.9363 50 29.2408 50 28.5156V21.4844C50 20.7592 49.7119 20.0637 49.1991 19.5509C48.6863 19.0381 47.9908 18.75 47.2656 18.75ZM47.6562 28.5156C47.6562 28.6192 47.6151 28.7186 47.5418 28.7918C47.4686 28.8651 47.3692 28.9062 47.2656 28.9062H43.7773C43.2108 28.9069 42.6584 29.0835 42.1965 29.4117C41.7347 29.7399 41.3862 30.2034 41.1992 30.7383C40.9994 31.3046 40.7699 31.8601 40.5117 32.4023C40.2642 32.9135 40.182 33.489 40.2765 34.049C40.371 34.609 40.6375 35.1257 41.0391 35.5273L43.5039 37.9922C43.5767 38.0654 43.6175 38.1644 43.6175 38.2676C43.6175 38.3708 43.5767 38.4698 43.5039 38.543L38.5352 43.5078C38.462 43.5806 38.363 43.6214 38.2598 43.6214C38.1566 43.6214 38.0576 43.5806 37.9844 43.5078L35.5195 41.043C35.1179 40.6414 34.6012 40.3749 34.0412 40.2804C33.4812 40.1859 32.9057 40.2681 32.3945 40.5156C31.851 40.7739 31.2942 41.0034 30.7266 41.2031C30.1925 41.3908 29.7297 41.7395 29.4023 42.2013C29.0748 42.6631 28.8988 43.2151 28.8984 43.7812V47.2656C28.8984 47.3692 28.8573 47.4686 28.784 47.5418C28.7108 47.6151 28.6114 47.6562 28.5078 47.6562H21.4844C21.3808 47.6562 21.2814 47.6151 21.2082 47.5418C21.1349 47.4686 21.0938 47.3692 21.0938 47.2656V43.7773C21.0931 43.2108 20.9165 42.6584 20.5883 42.1965C20.2601 41.7347 19.7966 41.3862 19.2617 41.1992C18.6954 40.9994 18.1399 40.7699 17.5977 40.5117C17.0865 40.2642 16.511 40.182 15.951 40.2765C15.391 40.371 14.8743 40.6375 14.4727 41.0391L12.0078 43.5039C11.9346 43.5767 11.8356 43.6175 11.7324 43.6175C11.6292 43.6175 11.5302 43.5767 11.457 43.5039L6.49219 38.5352C6.41943 38.462 6.3786 38.363 6.3786 38.2598C6.3786 38.1566 6.41943 38.0576 6.49219 37.9844L8.95703 35.5195C9.35857 35.1179 9.6251 34.6012 9.7196 34.0412C9.8141 33.4812 9.73189 32.9057 9.48438 32.3945C9.22609 31.851 8.9966 31.2942 8.79688 30.7266C8.60817 30.1945 8.25944 29.734 7.79853 29.408C7.33763 29.0821 6.78715 28.9068 6.22266 28.9062H2.73438C2.63077 28.9062 2.53142 28.8651 2.45816 28.7918C2.38491 28.7186 2.34375 28.6192 2.34375 28.5156V21.4844C2.34375 21.3808 2.38491 21.2814 2.45816 21.2082C2.53142 21.1349 2.63077 21.0938 2.73438 21.0938H6.22266C6.78923 21.0931 7.34162 20.9165 7.80347 20.5883C8.26532 20.2601 8.61381 19.7966 8.80078 19.2617C9.00065 18.6954 9.23013 18.1399 9.48828 17.5977C9.73579 17.0865 9.81801 16.511 9.72351 15.951C9.62901 15.391 9.36248 14.8743 8.96094 14.4727L6.49609 12.0078C6.42334 11.9346 6.3825 11.8356 6.3825 11.7324C6.3825 11.6292 6.42334 11.5302 6.49609 11.457L11.4648 6.49219C11.538 6.41943 11.637 6.3786 11.7402 6.3786C11.8434 6.3786 11.9424 6.41943 12.0156 6.49219L14.4805 8.95703C14.8821 9.35857 15.3988 9.6251 15.9588 9.7196C16.5188 9.8141 17.0943 9.73189 17.6055 9.48438C18.149 9.22609 18.7058 8.9966 19.2734 8.79688C19.8055 8.60817 20.266 8.25944 20.592 7.79853C20.9179 7.33763 21.0932 6.78715 21.0938 6.22266V2.73438C21.0938 2.63077 21.1349 2.53142 21.2082 2.45816C21.2814 2.38491 21.3808 2.34375 21.4844 2.34375H28.5156C28.6192 2.34375 28.7186 2.38491 28.7918 2.45816C28.8651 2.53142 28.9062 2.63077 28.9062 2.73438V6.22266C28.9069 6.78923 29.0835 7.34162 29.4117 7.80347C29.7399 8.26532 30.2034 8.61381 30.7383 8.80078C31.3046 9.00065 31.8601 9.23013 32.4023 9.48828C32.9135 9.73579 33.489 9.81801 34.049 9.72351C34.609 9.62901 35.1257 9.36248 35.5273 8.96094L37.9922 6.49609C38.0654 6.42334 38.1644 6.3825 38.2676 6.3825C38.3708 6.3825 38.4698 6.42334 38.543 6.49609L43.5156 11.4688C43.5884 11.5419 43.6292 11.6409 43.6292 11.7441C43.6292 11.8473 43.5884 11.9463 43.5156 12.0195L41.0508 14.4844C40.6492 14.886 40.3827 15.4027 40.2882 15.9627C40.1937 16.5227 40.2759 17.0982 40.5234 17.6094C40.7817 18.1529 41.0112 18.7097 41.2109 19.2773C41.3986 19.8115 41.7473 20.2742 42.2091 20.6016C42.6709 20.9291 43.223 21.1051 43.7891 21.1055H47.2656C47.3692 21.1055 47.4686 21.1466 47.5418 21.2199C47.6151 21.2931 47.6562 21.3925 47.6562 21.4961V28.5156Z" fill="black"/>
</g>
<defs>
<clipPath id="clip0_84_708">
<rect width="50" height="50" fill="white"/>
</clipPath>
</defs>
</svg>
