<svg width="39" height="45" viewBox="0 0 39 45" fill="none" xmlns="http://www.w3.org/2000/svg">
<g clip-path="url(#clip0_69_190)">
<path d="M16.0792 25.261C16.0792 26.925 14.8722 27.4509 13.3893 27.4509H9.50095V22.8901H13.4669C15.0705 22.8987 16.0792 23.5626 16.0792 25.261ZM15.4153 18.1655C15.4153 16.6395 14.2342 16.2774 12.9237 16.2774H9.50957V20.1398H13.191C14.4928 20.1398 15.4153 19.5708 15.4153 18.1655ZM26.8216 20.1657C25.2439 20.1657 24.1921 21.1486 24.0886 22.7263H29.4512C29.3047 21.1313 28.477 20.1657 26.8216 20.1657ZM38.6246 6.89713V37.245C38.6246 39.5297 36.7709 41.3833 34.4862 41.3833H4.13834C1.85363 41.3833 0 39.5297 0 37.245V6.89713C0 4.61242 1.85363 2.75879 4.13834 2.75879H34.4862C36.7709 2.75879 38.6246 4.61242 38.6246 6.89713ZM23.4248 15.9498H30.1323V14.3203H23.4248V15.9498ZM19.7175 25.4593C19.7175 23.3815 18.7346 21.5883 16.6999 21.0106C18.1829 20.3036 18.9588 19.4846 18.9588 17.8206C18.9588 14.5272 16.5016 13.7254 13.6652 13.7254H5.86266V30.2788H13.8893C16.8982 30.2615 19.7175 28.8217 19.7175 25.4593ZM32.7619 24.1833C32.7619 20.6399 30.6841 17.6827 26.9337 17.6827C23.2782 17.6827 20.8038 20.4244 20.8038 24.0282C20.8038 27.7613 23.1575 30.3219 26.9337 30.3219C29.7961 30.3219 31.6497 29.0373 32.5464 26.287H29.6409C29.3219 27.313 28.0373 27.8475 27.0372 27.8475C25.106 27.8475 24.0972 26.7181 24.0972 24.8041H32.736C32.7447 24.6058 32.7619 24.3903 32.7619 24.1833Z" fill="black"/>
</g>
<defs>
<clipPath id="clip0_69_190">
<rect width="38.6246" height="44.1423" fill="white"/>
</clipPath>
</defs>
</svg>
