<svg width="30" height="24" viewBox="0 0 30 24" fill="none" xmlns="http://www.w3.org/2000/svg">
<path d="M15.4008 13.4948C15.4574 12.5099 15.94 11.6407 16.6688 11.0252C17.4335 10.39 18.398 10.0456 19.3921 10.0526C20.4385 10.0526 21.4 10.4219 22.114 11.0252C22.8429 11.6407 23.3242 12.5099 23.3796 13.4936C23.435 14.5068 23.0287 15.4461 22.3147 16.1441C21.5282 16.8953 20.4795 17.3096 19.3921 17.2989C18.3038 17.3097 17.2543 16.8954 16.4669 16.1441C15.7529 15.4461 15.3454 14.5068 15.4008 13.4948ZM9.0483 15.4855C9.05568 15.8721 9.17879 16.6206 9.36346 17.2066C9.76212 18.4673 10.4314 19.6257 11.3246 20.6007C12.2825 21.6539 13.4516 22.4933 14.7557 23.0642C16.175 23.6898 17.7105 24.0087 19.2616 23.9998C20.8124 24.0029 22.3465 23.679 23.7637 23.0494C25.0669 22.4731 26.2349 21.6302 27.1924 20.5749C28.0841 19.5966 28.7528 18.4365 29.1523 17.1746C29.5364 15.9519 29.6416 14.6588 29.4601 13.3901C29.2872 12.1747 28.8611 11.0092 28.2092 9.96889C27.6054 9.00118 26.8332 8.14936 25.9292 7.45374H25.9317L16.7009 0.366257L16.6762 0.34779C16.0705 -0.117568 15.0524 -0.115106 14.3864 0.350252C13.713 0.820535 13.6366 1.59983 14.2349 2.09227L14.2337 2.0935L18.0822 5.22421L6.34971 5.23652H6.3337C5.36359 5.23775 4.43164 5.87423 4.24698 6.67937C4.05739 7.49806 4.7148 8.17763 5.72431 8.18132V8.18379L11.6706 8.17148L1.05841 16.3177L1.01655 16.3485C0.015663 17.1142 -0.306887 18.3897 0.32344 19.196C0.963616 20.0172 2.32399 20.0184 3.33596 19.201L9.12709 14.4624C9.12709 14.4624 9.04091 15.1026 9.0483 15.4855ZM23.9324 17.6288C22.7382 18.8452 21.0688 19.5346 19.2603 19.5371C17.4506 19.542 15.78 18.8575 14.5858 17.6436C14.0219 17.0775 13.5869 16.3964 13.3104 15.6468C13.057 14.9415 12.9569 14.1902 13.0167 13.4432C13.0766 12.6961 13.2951 11.9704 13.6576 11.3145C14.0182 10.6661 14.5001 10.0931 15.077 9.62664C16.2367 8.68115 17.7128 8.17025 19.2579 8.16778C20.8041 8.16532 22.2802 8.67254 23.4412 9.61433C24.0321 10.0957 24.5122 10.6657 24.8594 11.2973C25.2188 11.9444 25.4377 12.6601 25.502 13.3975C25.5673 14.1533 25.4669 14.9141 25.2078 15.6271C24.9312 16.3778 24.4955 17.0605 23.9324 17.6288Z" fill="black"/>
</svg>
