<svg width="19" height="28" viewBox="0 0 19 28" fill="none" xmlns="http://www.w3.org/2000/svg">
<path d="M11.9286 1V6.73298C11.9286 7.1131 12.0565 7.47765 12.2842 7.74643C12.512 8.01522 12.8208 8.16622 13.1429 8.16622H18M11.9286 1H3.42857C2.78447 1 2.16676 1.302 1.71131 1.83957C1.25587 2.37715 1 3.10625 1 3.86649V23.9319C1 24.6921 1.25587 25.4212 1.71131 25.9588C2.16676 26.4964 2.78447 26.7984 3.42857 26.7984H15.5714C16.2155 26.7984 16.8332 26.4964 17.2887 25.9588C17.7441 25.4212 18 24.6921 18 23.9319V8.16622M11.9286 1L18 8.16622M8.28571 14.6158C8.28571 14.0456 8.09381 13.4988 7.75223 13.0956C7.41065 12.6925 6.94736 12.466 6.46429 12.466C5.98121 12.466 5.51793 12.6925 5.17634 13.0956C4.83476 13.4988 4.64286 14.0456 4.64286 14.6158V18.9156C4.64286 19.4857 4.83476 20.0326 5.17634 20.4357C5.51793 20.8389 5.98121 21.0654 6.46429 21.0654C6.94736 21.0654 7.41065 20.8389 7.75223 20.4357C8.09381 20.0326 8.28571 19.4857 8.28571 18.9156M10.7143 12.466L12.5357 21.0654L14.3571 12.466" stroke="white" stroke-width="2" stroke-linecap="round" stroke-linejoin="round"/>
</svg>
