<svg width="27" height="50" viewBox="0 0 27 50" fill="none" xmlns="http://www.w3.org/2000/svg">
<path d="M26.0407 0.948254C26.3451 1.25241 26.3451 1.73548 26.0314 2.03069L26.0407 0.948254ZM15.1189 46.7418C14.8053 46.9922 14.344 46.9744 14.0581 46.6881L15.1189 46.7418ZM3.25624 0.00894579H23.7438C24.6385 0.00894579 25.4503 0.366777 26.0407 0.939308V0.948254C26.631 1.52078 26.9908 2.30801 26.9908 3.16681V7.71127V7.74706V20.1101V20.128V20.1459V38.4937V38.5116V38.5295V41.5443V41.5621V41.58V46.1245C26.9908 46.9922 26.6218 47.7884 26.0314 48.352C25.4411 48.9245 24.6293 49.2734 23.7345 49.2734H3.24701C2.35224 49.2734 1.54049 48.9156 0.95012 48.352C0.359754 47.7795 0 46.9922 0 46.1245V41.58V41.5621V41.5443V7.73811V7.70233V3.15786C0 2.29012 0.368979 1.49395 0.95012 0.930362C1.54049 0.357832 2.35224 0 3.24701 0L3.25624 0.00894579ZM25.4134 20.9689C24.6201 21.121 23.919 21.4878 23.3748 22.0066C22.6645 22.6865 22.2217 23.6348 22.2217 24.7083C22.2217 25.7639 22.6645 26.7121 23.3748 27.401C23.919 27.9288 24.6201 28.3045 25.4134 28.4476V20.96V20.9689ZM25.4134 30.0131C24.1865 29.8521 23.0888 29.2975 22.2494 28.4923C21.2532 27.5262 20.6351 26.1843 20.6351 24.7083C20.6351 23.2143 21.2532 21.8814 22.2586 20.9153C23.0888 20.1191 24.1865 19.5734 25.4134 19.4124V11.558L23.7438 11.5669L23.2825 15.4852C23.2456 15.7535 23.0704 16.004 22.7936 16.1114L22.5815 16.1919L22.5446 16.2098L22.2771 16.3171C22.028 16.4155 21.7328 16.3976 21.5022 16.2366L18.2552 13.9465L15.0635 17.0417L17.3973 20.1638C17.5726 20.3785 17.6279 20.6737 17.508 20.951L17.3973 21.2105L17.3051 21.452C17.2036 21.6935 16.9822 21.8904 16.6871 21.9261L12.7298 22.5345V26.9179L16.6871 27.5262C16.9546 27.5709 17.1944 27.7409 17.3051 28.0003L17.3973 28.224L17.4066 28.2419L17.5173 28.5013C17.6187 28.7428 17.6003 29.0291 17.4342 29.2527L15.0728 32.4017L18.2644 35.4969L21.4838 33.2336C21.7052 33.0636 22.0096 33.01 22.2955 33.1263L22.563 33.2336L22.766 33.3141C23.0519 33.4036 23.2733 33.6541 23.3102 33.9582L23.7714 37.7691H25.4503V30.031L25.4134 30.0131ZM25.4134 39.2899H23.0335C22.6092 39.2899 22.2586 38.9679 22.2402 38.5564L21.7974 34.8707L18.6242 37.1071C18.3013 37.3308 17.8678 37.295 17.6003 37.0266L13.4493 33.001C13.1541 32.7148 13.1449 32.2675 13.4031 31.9633L15.6908 28.9039L11.7889 28.3045C11.4014 28.2419 11.1155 27.9198 11.1155 27.5441V21.8546C11.1155 21.4431 11.4476 21.1121 11.8627 21.0852L15.6908 20.5038L13.3662 17.3996C13.1356 17.0865 13.1725 16.666 13.4493 16.4066L17.6003 12.381C17.8955 12.0947 18.3567 12.0858 18.6703 12.3362L21.7882 14.5369L22.2402 10.7081C22.2863 10.2966 22.6645 10.0014 23.0796 10.0282L25.4042 10.0103V8.48956H1.58661V40.7928H25.4042V39.281L25.4134 39.2899ZM25.4134 42.3404H1.59583V46.1334C1.59583 46.5807 1.78032 46.9833 2.08473 47.2785C2.38914 47.5737 2.80424 47.7526 3.26546 47.7526H23.753C24.2142 47.7526 24.6293 47.5737 24.9245 47.2785C25.2289 46.9833 25.4134 46.5807 25.4134 46.1334V42.3404ZM1.59583 6.95088H25.4134V3.15786C25.4134 2.71057 25.2289 2.30801 24.9245 2.02175C24.6293 1.73548 24.205 1.54762 23.753 1.54762H3.26546C2.80424 1.54762 2.38914 1.72654 2.08473 2.02175C1.78032 2.31696 1.59583 2.71952 1.59583 3.15786V6.95088ZM9.93475 5.39431C9.5012 5.39431 9.14144 5.04543 9.14144 4.62497C9.14144 4.20452 9.5012 3.85564 9.93475 3.85564H16.7701C17.2036 3.85564 17.5634 4.20452 17.5634 4.62497C17.5634 5.04543 17.2036 5.39431 16.7701 5.39431H9.93475ZM13.5046 42.743C14.1595 42.743 14.7591 43.0024 15.1927 43.4229C15.6262 43.8433 15.8937 44.4159 15.8937 45.06C15.8937 45.6951 15.6262 46.2766 15.1927 46.697L15.1373 46.7507C14.713 47.1354 14.1411 47.3769 13.5138 47.3769C12.8589 47.3769 12.2685 47.1175 11.835 46.697C11.4014 46.2766 11.1339 45.7041 11.1339 45.0689C11.1339 44.4338 11.4014 43.8523 11.835 43.4408C12.2685 43.0203 12.8589 42.7609 13.5231 42.7609L13.5046 42.743ZM14.0673 44.5053C13.9289 44.3711 13.726 44.2817 13.5046 44.2817C13.2832 44.2817 13.0895 44.3711 12.9419 44.5053C12.8036 44.6395 12.7113 44.8363 12.7113 45.051C12.7113 45.2657 12.8036 45.4625 12.9419 45.5967C13.0803 45.7309 13.2832 45.8203 13.5046 45.8203C13.7076 45.8203 13.9013 45.7488 14.0396 45.6235L14.0673 45.5967C14.2057 45.4625 14.2979 45.2657 14.2979 45.051C14.2979 44.8363 14.2057 44.6484 14.0673 44.5053Z" fill="black"/>
</svg>
