<svg width="65" height="52" viewBox="0 0 65 52" fill="none" xmlns="http://www.w3.org/2000/svg">
<path d="M1 44.3921H55.3797V48.5167" stroke="black" stroke-width="2" stroke-miterlimit="2.6131" stroke-linecap="round" stroke-linejoin="round"/>
<path d="M55.3796 48.5168C55.3796 49.493 54.5704 50.2882 53.5852 50.2882" stroke="black" stroke-width="2" stroke-miterlimit="2.6131" stroke-linecap="round" stroke-linejoin="round"/>
<path d="M53.5854 50.2881H2.43604" stroke="black" stroke-width="2" stroke-miterlimit="2.6131" stroke-linecap="round" stroke-linejoin="round"/>
<path d="M2.43595 50.2882C1.64623 50.2882 1 49.6498 1 48.8713" stroke="black" stroke-width="2" stroke-miterlimit="2.6131" stroke-linecap="round" stroke-linejoin="round"/>
<path d="M1 48.8713V44.3921" stroke="black" stroke-width="2" stroke-miterlimit="2.6131" stroke-linecap="round" stroke-linejoin="round"/>
<path d="M17.896 16.3004H5.81104" stroke="black" stroke-width="2" stroke-miterlimit="2.6131" stroke-linecap="round" stroke-linejoin="round"/>
<path d="M5.81105 16.3004C4.92631 16.3004 4.20312 17.0133 4.20312 17.883" stroke="black" stroke-width="2" stroke-miterlimit="2.6131" stroke-linecap="round" stroke-linejoin="round"/>
<path d="M4.20312 17.8828V44.3921H52.1767V34.6372" stroke="black" stroke-width="2" stroke-miterlimit="2.6131" stroke-linecap="round" stroke-linejoin="round"/>
<path d="M36.7152 16.3004H25.8201" stroke="black" stroke-width="2" stroke-miterlimit="2.6131" stroke-linecap="round" stroke-linejoin="round"/>
<path d="M50.8787 16.3004H41.1953" stroke="black" stroke-width="2" stroke-miterlimit="2.6131" stroke-linecap="round" stroke-linejoin="round"/>
<path d="M52.1765 29.6415V20.9002" stroke="black" stroke-width="2" stroke-miterlimit="2.6131" stroke-linecap="round" stroke-linejoin="round"/>
<path d="M3.64014 47.3401H21.2633" stroke="black" stroke-width="2" stroke-miterlimit="2.6131" stroke-linecap="round" stroke-linejoin="round"/>
<path d="M46.5863 47.7139C46.7962 47.7139 46.9656 47.5444 46.9656 47.3402C46.9656 47.132 46.7961 46.9665 46.5863 46.9665C46.3766 46.9665 46.2046 47.1322 46.2046 47.3402C46.2046 47.5444 46.3766 47.7139 46.5863 47.7139Z" stroke="black" stroke-width="2" stroke-miterlimit="2.6131" stroke-linecap="round" stroke-linejoin="round"/>
<path d="M49.4336 47.7139C49.6448 47.7139 49.8155 47.5444 49.8155 47.3402C49.8155 47.132 49.6448 46.9665 49.4336 46.9665C49.2251 46.9665 49.0557 47.1322 49.0557 47.3402C49.0557 47.5444 49.2251 47.7139 49.4336 47.7139Z" stroke="black" stroke-width="2" stroke-miterlimit="2.6131" stroke-linecap="round" stroke-linejoin="round"/>
<path d="M52.0465 47.7139C52.2562 47.7139 52.4282 47.5444 52.4282 47.3402C52.4282 47.132 52.2562 46.9665 52.0465 46.9665C51.8392 46.9665 51.6672 47.1322 51.6672 47.3402C51.6671 47.5444 51.8392 47.7139 52.0465 47.7139Z" stroke="black" stroke-width="2" stroke-miterlimit="2.6131" stroke-linecap="round" stroke-linejoin="round"/>
<path d="M43.1592 30.0012C43.1592 33.4504 40.3223 36.248 36.8248 36.248C33.3272 36.248 30.4917 33.4502 30.4917 30.0012C30.4917 26.5548 33.3272 23.757 36.8248 23.757C40.3223 23.757 43.1592 26.5548 43.1592 30.0012Z" stroke="black" stroke-width="2" stroke-miterlimit="2.6131" stroke-linecap="round" stroke-linejoin="round"/>
<path d="M41.2293 5.34046C41.2293 7.73875 39.2564 9.67968 36.8247 9.67968C34.3918 9.67968 32.4229 7.73875 32.4229 5.34046C32.4229 2.94216 34.3918 1 36.8247 1C39.2563 1 41.2293 2.94216 41.2293 5.34046Z" stroke="black" stroke-width="2" stroke-miterlimit="2.6131" stroke-linecap="round" stroke-linejoin="round"/>
<path d="M63.511 30.0013C63.511 32.3996 61.5394 34.3431 59.1065 34.3431C56.6736 34.3431 54.7034 32.3996 54.7034 30.0013C54.7034 27.6056 56.6737 25.662 59.1065 25.662C61.5393 25.662 63.511 27.6056 63.511 30.0013Z" stroke="black" stroke-width="2" stroke-miterlimit="2.6131" stroke-linecap="round" stroke-linejoin="round"/>
<path d="M59.4077 11.1403C59.4077 12.7472 58.0863 14.0523 56.4536 14.0523C54.8194 14.0523 53.4941 12.7473 53.4941 11.1403C53.4941 9.52935 54.8194 8.22559 56.4536 8.22559C58.0863 8.22559 59.4077 9.52935 59.4077 11.1403Z" stroke="black" stroke-width="2" stroke-miterlimit="2.6131" stroke-linecap="round" stroke-linejoin="round"/>
<path d="M14.2992 10.4698C14.2992 12.0806 12.974 13.3843 11.3426 13.3843C9.70838 13.3843 8.38843 12.0806 8.38843 10.4698C8.38843 8.86148 9.70838 7.55511 11.3426 7.55511C12.974 7.55498 14.2992 8.86135 14.2992 10.4698Z" stroke="black" stroke-width="2" stroke-miterlimit="2.6131" stroke-linecap="round" stroke-linejoin="round"/>
<path d="M42.002 26.1991L54.5053 13.3843" stroke="black" stroke-width="2" stroke-miterlimit="2.6131" stroke-linecap="round" stroke-linejoin="round"/>
<path d="M36.825 23.5683V9.7876" stroke="black" stroke-width="2" stroke-miterlimit="2.6131" stroke-linecap="round" stroke-linejoin="round"/>
<path d="M43.1592 30.0012H52.002H54.7035" stroke="black" stroke-width="2" stroke-miterlimit="2.6131" stroke-linecap="round" stroke-linejoin="round"/>
<path d="M13.5737 12.448L31.5175 26.3006" stroke="black" stroke-width="2" stroke-miterlimit="2.6131" stroke-linecap="round" stroke-linejoin="round"/>
</svg>
