<svg width="24" height="24" viewBox="0 0 24 24" fill="none" xmlns="http://www.w3.org/2000/svg">
<circle cx="12" cy="12" r="12" fill="black"/>
<path d="M9.73438 12.3281L11.1875 12.5078C10.9583 13.3568 10.5339 14.0156 9.91406 14.4844C9.29427 14.9531 8.5026 15.1875 7.53906 15.1875C6.32552 15.1875 5.36198 14.8151 4.64844 14.0703C3.9401 13.3203 3.58594 12.2708 3.58594 10.9219C3.58594 9.52604 3.94531 8.44271 4.66406 7.67188C5.38281 6.90104 6.3151 6.51562 7.46094 6.51562C8.57031 6.51562 9.47656 6.89323 10.1797 7.64844C10.8828 8.40365 11.2344 9.46615 11.2344 10.8359C11.2344 10.9193 11.2318 11.0443 11.2266 11.2109H5.03906C5.09115 12.1224 5.34896 12.8203 5.8125 13.3047C6.27604 13.7891 6.85417 14.0312 7.54688 14.0312C8.0625 14.0312 8.5026 13.8958 8.86719 13.625C9.23177 13.3542 9.52083 12.9219 9.73438 12.3281ZM5.11719 10.0547H9.75C9.6875 9.35677 9.51042 8.83333 9.21875 8.48438C8.77083 7.94271 8.1901 7.67188 7.47656 7.67188C6.83073 7.67188 6.28646 7.88802 5.84375 8.32031C5.40625 8.7526 5.16406 9.33073 5.11719 10.0547ZM11.3834 15L14.4147 10.6875L11.61 6.70312H13.3678L14.6412 8.64844C14.8808 9.01823 15.0735 9.32812 15.2194 9.57812C15.4485 9.23438 15.6595 8.92969 15.8522 8.66406L17.2506 6.70312H18.9303L16.0631 10.6094L19.1491 15H17.4225L15.7194 12.4219L15.2662 11.7266L13.0866 15H11.3834Z" fill="white"/>
</svg>
