<svg width="16" height="24" viewBox="0 0 16 24" fill="none" xmlns="http://www.w3.org/2000/svg">
<path d="M3.6 0C1.61178 0 0 1.61178 0 3.6C0 5.58822 1.61178 7.2 3.6 7.2H12C13.9883 7.2 15.6 5.58822 15.6 3.6C15.6 1.61178 13.9883 0 12 0H3.6Z" fill="black"/>
<path d="M11.9999 8.40002C10.0116 8.40002 8.3999 10.0117 8.3999 12C8.3999 13.9883 10.0116 15.6 11.9999 15.6C13.9882 15.6 15.5999 13.9883 15.5999 12C15.5999 10.0117 13.9882 8.40002 11.9999 8.40002Z" fill="black"/>
<path d="M0 12C0 10.0117 1.61178 8.40002 3.6 8.40002H7.2V15.6H3.6C1.61178 15.6 0 13.9883 0 12Z" fill="black"/>
<path d="M3.6 16.8C1.61178 16.8 0 18.4117 0 20.4C0 22.3883 1.61178 24 3.6 24C5.58828 24 7.2 22.3883 7.2 20.4V16.8H3.6Z" fill="black"/>
</svg>
