<svg width="18" height="25" viewBox="0 0 18 25" fill="none" xmlns="http://www.w3.org/2000/svg">
<path d="M0.674489 16.0251L3.10091 0.476089C3.18477 -0.054195 3.89608 -0.179479 4.14716 0.294555L6.75511 5.17552L0.674489 16.0251ZM18 19.6364L15.6099 5.48234C15.5926 5.38117 15.5479 5.28667 15.4807 5.20908C15.4135 5.13148 15.3263 5.07376 15.2287 5.04216C15.131 5.01055 15.0266 5.00627 14.9266 5.02978C14.8267 5.05329 14.7351 5.10369 14.6618 5.17552L0 19.6364L8.14909 24.3363C8.39916 24.4735 8.67976 24.5454 8.96497 24.5454C9.25018 24.5454 9.53078 24.4735 9.78085 24.3363L18 19.6364ZM11.3707 7.30893L9.50216 3.75291C9.4557 3.66156 9.38486 3.58484 9.2975 3.53126C9.21014 3.47768 9.10965 3.44932 9.00716 3.44932C8.90467 3.44932 8.80418 3.47768 8.71682 3.53126C8.62945 3.58484 8.55862 3.66156 8.51216 3.75291L0.298125 18.3958L11.3707 7.30893Z" fill="black"/>
</svg>
