<svg width="39" height="39" viewBox="0 0 39 39" fill="none" xmlns="http://www.w3.org/2000/svg">
<path fill-rule="evenodd" clip-rule="evenodd" d="M19.1922 2.39893C9.91842 2.39893 2.39893 10.1058 2.39893 19.6195C2.39893 27.229 7.212 33.6764 13.8843 35.9555C14.724 36.1129 15.0314 35.5807 15.0314 35.1233C15.0314 34.711 15.0164 33.6314 15.0089 32.192C10.3383 33.2341 9.34865 29.8829 9.34865 29.8829C8.58395 27.8962 7.48189 27.3639 7.48189 27.3639C5.96 26.2919 7.59435 26.3144 7.59435 26.3144C9.28117 26.4343 10.1658 28.0912 10.1658 28.0912C11.6652 30.7226 14.0942 29.9654 15.0539 29.5231C15.2038 28.4135 15.6386 27.6488 16.1184 27.2215C12.3924 26.7867 8.4715 25.3098 8.4715 18.7124C8.4715 16.8307 9.12374 15.2938 10.1958 14.0942C10.0234 13.6594 9.44611 11.9051 10.3607 9.53607C10.3607 9.53607 11.7702 9.07126 14.9789 11.2979C16.3209 10.9155 17.7528 10.7281 19.1847 10.7206C20.6091 10.7281 22.0486 10.9155 23.3905 11.2979C26.5992 9.07126 28.0012 9.53607 28.0012 9.53607C28.9158 11.9051 28.3386 13.6594 28.1661 14.0942C29.2382 15.3013 29.8904 16.8382 29.8904 18.7124C29.8904 25.3248 25.962 26.7792 22.221 27.2065C22.8208 27.7388 23.3605 28.7884 23.3605 30.3927C23.3605 32.6943 23.338 34.5536 23.338 35.1158C23.338 35.5732 23.6379 36.1129 24.4926 35.9405C31.1799 33.6689 35.9855 27.2215 35.9855 19.6195C35.9855 10.1058 28.466 2.39893 19.1922 2.39893Z" fill="black"/>
</svg>
