<svg width="24" height="24" viewBox="0 0 24 24" fill="none" xmlns="http://www.w3.org/2000/svg">
<path d="M0 4.33333V19.6667C0 22.0599 1.94009 24 4.33333 24H19.6667C22.0599 24 24 22.0599 24 19.6667V4.33333C24 1.94009 22.0599 0 19.6667 0H4.33333C1.94009 0 0 1.94009 0 4.33333ZM12 8.66667C12.5523 8.66667 13 9.11439 13 9.66667V17.6667C13 18.9553 11.9553 20 10.6667 20H9C8.44772 20 8 19.5523 8 19C8 18.4477 8.44772 18 9 18H10.6667C10.8508 18 11 17.8508 11 17.6667V9.66667C11 9.11439 11.4477 8.66667 12 8.66667ZM14.6667 11C14.6667 9.71133 15.7113 8.66667 17 8.66667H19C19.5523 8.66667 20 9.11439 20 9.66667C20 10.2189 19.5523 10.6667 19 10.6667H17C16.8159 10.6667 16.6667 10.8159 16.6667 11V13C16.6667 13.1841 16.8159 13.3333 17 13.3333H17.6667C18.9553 13.3333 20 14.378 20 15.6667V17.6667C20 18.9553 18.9553 20 17.6667 20H15.6667C15.1144 20 14.6667 19.5523 14.6667 19C14.6667 18.4477 15.1144 18 15.6667 18H17.6667C17.8508 18 18 17.8508 18 17.6667V15.6667C18 15.4825 17.8508 15.3333 17.6667 15.3333H17C15.7113 15.3333 14.6667 14.2887 14.6667 13V11Z" fill="#212121"/>
</svg>
