<svg width="52" height="50" viewBox="0 0 52 50" fill="none" xmlns="http://www.w3.org/2000/svg">
<path d="M48.8789 22.656C48.8789 20.818 48.0163 19.0955 46.5462 17.949C46.6102 17.6555 46.6419 17.3735 46.6419 17.096C46.6419 14.8065 44.8812 12.905 42.5937 12.5775C42.6462 12.3145 42.6712 12.0565 42.6712 11.7995C42.6712 9.36201 40.6733 7.37051 38.1706 7.24401C38.1295 7.23751 38.0879 7.23201 38.0447 7.23201C38.0239 7.23201 38.0037 7.23451 37.9823 7.23501C37.9615 7.23451 37.9413 7.23201 37.9199 7.23201C37.6818 7.23201 37.4421 7.25251 37.1888 7.29501C36.7489 5.05251 34.7173 3.38251 32.2816 3.38251C29.5199 3.38251 27.2729 5.54301 27.2729 8.19901V41.158C27.2729 44.5195 30.1168 47.2535 33.6123 47.2535C35.9315 47.2535 38.0364 46.047 39.1482 44.1305C39.3973 44.1825 39.6365 44.2145 39.8767 44.2295C41.3863 44.322 42.8563 43.8465 43.9982 42.883C45.1401 41.9195 45.8234 40.586 45.9222 39.128C45.9633 38.5205 45.8926 37.911 45.7127 37.309C47.6866 35.9635 48.8467 33.833 48.8467 31.4985C48.8467 29.806 48.2128 28.181 47.0553 26.8865C48.2201 25.7525 48.8789 24.2355 48.8789 22.656ZM47.2878 31.4995C47.2878 33.2415 46.4651 34.8395 45.0543 35.909C44.0102 34.311 42.1579 33.2905 40.1523 33.2905C39.7217 33.2905 39.3723 33.6265 39.3723 34.0405C39.3723 34.4545 39.7217 34.7905 40.1523 34.7905C41.8896 34.7905 43.472 35.837 44.0949 37.3945C44.3081 37.9385 44.4028 38.489 44.3659 39.0315C44.2941 40.0895 43.7985 41.057 42.9697 41.756C42.1408 42.4555 41.0764 42.803 39.9786 42.733C39.6698 42.7135 39.3505 42.6495 38.9735 42.532C38.5887 42.411 38.1721 42.594 38.0135 42.952C37.2621 44.654 35.5342 45.754 33.6117 45.754C30.9764 45.754 28.8324 43.6925 28.8324 41.1585V8.19951C28.8324 6.37101 30.3794 4.88301 32.2811 4.88301C34.048 4.88301 35.5019 6.16401 35.6912 7.83701C34.2607 8.62501 33.293 10.1045 33.293 11.8C33.293 12.2145 33.6424 12.55 34.073 12.55C34.5035 12.55 34.853 12.2145 34.853 11.8C34.853 10.1285 36.2513 8.76751 37.9813 8.73501C39.7113 8.76751 41.1096 10.1285 41.1096 11.7995C41.1096 12.1105 41.0488 12.4325 40.9229 12.785C40.8933 12.868 40.8793 12.955 40.8808 13.0425C40.8813 13.063 40.8824 13.082 40.8845 13.1C40.8813 13.1105 40.8793 13.1175 40.8793 13.1175C40.8179 13.35 40.8761 13.597 41.0358 13.7815C41.1954 13.966 41.4336 14.066 41.6863 14.0505C41.7404 14.047 41.7945 14.0405 41.8901 14.0275C43.6493 14.0275 45.0809 15.404 45.0809 17.0955C45.0809 17.3815 45.0273 17.675 44.9134 18.02C44.8079 18.3375 44.9332 18.684 45.2207 18.87C46.4864 19.6895 47.2534 21.0345 47.308 22.491C47.308 22.493 47.3075 22.495 47.3075 22.497C47.3075 25.012 45.1797 27.0585 42.5641 27.0585C39.9485 27.0585 37.8201 25.012 37.8201 22.497C37.8201 22.0825 37.4707 21.747 37.0401 21.747C36.6095 21.747 36.2601 22.0825 36.2601 22.497C36.2601 25.8395 39.0879 28.5585 42.5641 28.5585C43.7226 28.5585 44.8053 28.251 45.7392 27.7245C46.7376 28.7695 47.2878 30.106 47.2878 31.4995Z" fill="black"/>
<path d="M19.8532 3.383C17.4175 3.383 15.3864 5.053 14.947 7.2955C14.6932 7.253 14.4535 7.2325 14.2153 7.2325C14.1945 7.2325 14.1742 7.235 14.1529 7.2355C14.1321 7.235 14.1118 7.2325 14.0905 7.2325C14.0474 7.2325 14.0058 7.238 13.9647 7.2445C11.4619 7.371 9.4646 9.3625 9.4646 11.8C9.4646 12.057 9.49008 12.315 9.54208 12.578C7.2546 12.9055 5.49388 14.807 5.49388 17.0965C5.49388 17.3735 5.5256 17.6555 5.58956 17.9495C4.11952 19.096 3.25684 20.8185 3.25684 22.6565C3.25684 24.236 3.91516 25.753 5.07944 26.888C3.9214 28.1825 3.28752 29.8075 3.28752 31.5C3.28752 33.8345 4.44764 35.9645 6.42156 37.3105C6.24112 37.9125 6.17092 38.522 6.21252 39.13C6.31132 40.5875 6.99408 41.921 8.136 42.8845C9.27792 43.8485 10.7438 44.324 12.2575 44.231C12.4941 44.216 12.7354 44.183 12.9855 44.1315C14.0973 46.0485 16.2022 47.255 18.5214 47.255C22.0169 47.255 24.8608 44.5205 24.8608 41.1595V8.1995C24.8618 5.5435 22.6149 3.383 19.8532 3.383ZM23.3018 41.1585C23.3018 43.6925 21.1578 45.754 18.5225 45.754C16.6 45.754 14.8721 44.654 14.1212 42.952C13.9959 42.6685 13.7088 42.495 13.4031 42.495C13.323 42.495 13.2414 42.5065 13.1613 42.532C12.7848 42.6495 12.4655 42.7135 12.1561 42.733C11.0542 42.8025 9.99396 42.455 9.1656 41.756C8.33672 41.057 7.84116 40.0895 7.7694 39.0315C7.72988 38.4515 7.8344 37.8635 8.08036 37.284C8.084 37.2755 8.08296 37.266 8.08608 37.2575C8.78392 35.7295 10.2831 34.781 12.0365 34.781C12.4676 34.781 12.8165 34.445 12.8165 34.031C12.8165 33.617 12.4676 33.281 12.0365 33.281C9.98876 33.281 8.136 34.2845 7.07156 35.9005C5.66704 34.831 4.84752 33.237 4.84752 31.4995C4.84752 30.106 5.39872 28.7695 6.39608 27.725C7.33 28.2515 8.41316 28.559 9.57172 28.559C13.0479 28.559 15.8757 25.84 15.8757 22.4975C15.8757 22.083 15.5268 21.7475 15.0957 21.7475C14.6646 21.7475 14.3157 22.083 14.3157 22.4975C14.3157 25.0125 12.1878 27.059 9.57172 27.059C6.9556 27.059 4.82776 25.0125 4.82776 22.4975C4.82776 22.4965 4.82724 22.4955 4.82724 22.4945C4.8808 21.037 5.6478 19.691 6.914 18.8705C7.20156 18.6845 7.32636 18.3385 7.22132 18.021C7.10692 17.6755 7.05388 17.382 7.05388 17.096C7.05388 15.408 8.4792 14.0335 10.2753 14.0335C10.2789 14.0335 10.2831 14.0335 10.2867 14.0335C10.3403 14.0405 10.3938 14.047 10.4484 14.0505C10.7006 14.0655 10.9414 13.965 11.1005 13.7795C11.2602 13.5935 11.3174 13.3455 11.2534 13.1125C11.2534 13.112 11.2518 13.1055 11.2492 13.097C11.2508 13.0795 11.2524 13.0635 11.2529 13.0495C11.2555 12.9595 11.2414 12.87 11.2108 12.785C11.0849 12.4315 11.0241 12.109 11.0241 11.799C11.0241 10.128 12.4218 8.7665 14.1524 8.7345C15.883 8.767 17.2807 10.128 17.2807 11.7995C17.2807 12.214 17.6296 12.5495 18.0607 12.5495C18.4918 12.5495 18.8407 12.214 18.8407 11.7995C18.8407 10.104 17.873 8.6245 16.4425 7.8365C16.6318 6.1635 18.0857 4.8825 19.8526 4.8825C21.7543 4.8825 23.3013 6.3705 23.3013 8.199L23.3018 41.1585Z" fill="black"/>
</svg>
