<svg width="39" height="39" viewBox="0 0 39 39" fill="none" xmlns="http://www.w3.org/2000/svg">
<path d="M20.3603 18.3494V18.2969C20.3494 18.3146 20.3378 18.3324 20.3262 18.3494H20.3603Z" fill="black"/>
<path d="M33.3555 3.15967H4.83767C3.47272 3.15967 2.36572 4.24026 2.36572 5.57204V34.4237C2.36572 35.7548 3.47272 36.8354 4.83767 36.8354H33.3555C34.7225 36.8354 35.8295 35.7541 35.8295 34.4237V5.57204C35.8295 4.23958 34.7218 3.15967 33.3555 3.15967ZM12.5088 31.3505H7.45452V16.1444H12.5088V31.3505ZM9.98199 14.0671H9.94813C8.25277 14.0671 7.15593 12.8992 7.15593 11.4401C7.15593 9.94856 8.28663 8.81313 10.0152 8.81313C11.7444 8.81313 12.808 9.94856 12.8419 11.4401C12.8419 12.8992 11.7437 14.0671 9.98199 14.0671ZM30.7346 31.3505H25.6803V23.2136C25.6803 21.1702 24.9491 19.7754 23.1204 19.7754C21.7243 19.7754 20.8928 20.7159 20.5265 21.6245C20.3932 21.9488 20.3607 22.4024 20.3607 22.8574V31.3498H15.3064C15.3064 31.3498 15.3728 17.5689 15.3064 16.1437H20.3607V18.2961C21.0323 17.2602 22.2334 15.7848 24.9166 15.7848C28.2417 15.7848 30.7353 17.9589 30.7353 22.6299L30.7346 31.3505Z" fill="black"/>
</svg>
