<svg width="36" height="24" viewBox="0 0 36 24" fill="none" xmlns="http://www.w3.org/2000/svg">
<path d="M24.1592 2.4298C23.9898 2.4298 23.8749 2.45042 23.7556 2.4784V2.49755H23.7763C23.8558 2.65071 23.9913 2.76263 24.0914 2.89959C24.1709 3.05716 24.2387 3.21474 24.3182 3.37084L24.3388 3.34875C24.4772 3.25155 24.545 3.09545 24.545 2.85835C24.4861 2.78914 24.4772 2.71992 24.4272 2.65218C24.3683 2.55351 24.2416 2.50491 24.1621 2.42686L24.1592 2.4298ZM8.49731 21.8602H7.13214C7.08796 19.5599 6.951 17.398 6.73452 15.3657H6.72274L4.64627 21.8602H3.60804L1.5463 15.3657H1.53158C1.37989 17.3141 1.28417 19.4789 1.24441 21.8602H0C0.0809968 18.9649 0.282753 16.2493 0.603795 13.7163H2.29736L4.26338 19.7013H4.27516L6.25885 13.7163H7.87142C8.22781 16.6838 8.43693 19.4009 8.50172 21.8602H8.49731ZM14.413 15.8517C13.8564 18.8633 13.123 21.0547 12.2158 22.4198C11.506 23.4743 10.7284 24 9.88456 24C9.65924 24 9.38385 23.9323 9.05103 23.7968V23.0693C9.21302 23.0943 9.40447 23.1076 9.61948 23.1076C10.0142 23.1076 10.3308 22.9971 10.5723 22.7806C10.8624 22.5155 11.0067 22.2181 11.0067 21.8897C11.0067 21.6614 10.8933 21.1975 10.668 20.4995L9.17473 15.8517H10.5149L11.5855 19.3272C11.827 20.1166 11.9286 20.6673 11.8874 20.981C12.4765 19.4141 12.8859 17.7014 13.1171 15.8517H14.413ZM32.5637 21.8602H28.6906V13.7163H29.9939V20.8588H32.5637V21.8602ZM27.6744 22.059L26.1782 21.3227C26.3107 21.2108 26.4388 21.09 26.5537 20.9545C27.1914 20.2093 27.508 19.1019 27.508 17.6366C27.508 14.9416 26.4506 13.5926 24.3344 13.5926C23.2976 13.5926 22.4877 13.9343 21.9045 14.6191C21.2712 15.3672 20.9531 16.4688 20.9531 17.9252C20.9531 19.3567 21.233 20.4082 21.7985 21.0767C22.3139 21.6805 23.09 21.9824 24.1297 21.9824C24.5185 21.9824 24.8749 21.9338 25.1974 21.8381L27.1487 22.975L27.6788 22.059H27.6744ZM22.8264 20.23C22.495 19.6998 22.3301 18.8457 22.3301 17.6734C22.3301 15.622 22.9545 14.5955 24.2004 14.5955C24.8528 14.5955 25.3343 14.8415 25.6392 15.3319C25.9691 15.865 26.134 16.7103 26.134 17.8693C26.134 19.9369 25.5096 20.9737 24.2637 20.9737C23.6084 20.9737 23.1298 20.7277 22.8234 20.2373L22.8264 20.23ZM20.3847 19.6041C20.3847 20.2962 20.1314 20.8647 19.6248 21.3065C19.1182 21.7483 18.4422 21.9692 17.5866 21.9692C16.787 21.9692 16.0197 21.7159 15.2701 21.2108L15.6191 20.5098C16.2642 20.8338 16.8459 20.9928 17.3716 20.9928C17.8605 20.9928 18.2449 20.8853 18.5247 20.6688C18.8016 20.4523 18.9665 20.1475 18.9665 19.7631C18.9665 19.2771 18.6278 18.8648 18.0122 18.5187C17.4408 18.205 16.2995 17.5512 16.2995 17.5512C15.678 17.0991 15.3688 16.6146 15.3688 15.8178C15.3688 15.1551 15.6 14.625 16.0609 14.22C16.5248 13.8106 17.1213 13.6088 17.8576 13.6088C18.6116 13.6088 19.3008 13.8091 19.9193 14.2126L19.6057 14.9136C19.0755 14.6898 18.5527 14.5749 18.0387 14.5749C17.622 14.5749 17.2995 14.6751 17.0756 14.8783C16.8503 15.0786 16.7104 15.3348 16.7104 15.65C16.7104 16.133 17.055 16.5483 17.6912 16.9017C18.2699 17.2184 19.4392 17.8884 19.4392 17.8884C20.0769 18.3376 20.3935 18.8162 20.3935 19.6085L20.3847 19.6041ZM34.2013 10.986C33.4134 10.9654 32.8022 11.0449 32.2912 11.2629C32.144 11.3218 31.9083 11.3218 31.8877 11.5088C31.9687 11.5869 31.9805 11.715 32.0497 11.824C32.1675 12.0213 32.3708 12.2849 32.5593 12.4233C32.7654 12.5853 32.9716 12.7414 33.1881 12.8799C33.571 13.1155 34.0054 13.2554 34.381 13.4925C34.5945 13.6309 34.8124 13.8062 35.0289 13.9534C35.1364 14.0271 35.2056 14.1596 35.3441 14.2067V14.1773C35.2763 14.0889 35.2557 13.9608 35.1894 13.8621C35.0908 13.7635 34.9921 13.6751 34.8949 13.5779C34.6092 13.195 34.2543 12.8607 33.8714 12.5839C33.5563 12.3689 32.867 12.0684 32.7375 11.7076L32.7183 11.687C32.9333 11.6679 33.1896 11.5898 33.3957 11.5309C33.73 11.4425 34.0363 11.4617 34.3824 11.3748C34.5385 11.335 34.6961 11.2864 34.8537 11.2364V11.148C34.677 10.9713 34.5444 10.7312 34.3618 10.5663C33.8611 10.1319 33.3059 9.70921 32.736 9.3543C32.4267 9.15696 32.035 9.03031 31.7095 8.86243C31.5917 8.80352 31.3944 8.77407 31.3266 8.6754C31.1499 8.46039 31.0468 8.17469 30.9216 7.91845C30.6389 7.3765 30.362 6.77713 30.1161 6.20573C29.9394 5.81989 29.8319 5.43552 29.6154 5.08208C28.5993 3.40766 27.4992 2.39299 25.8071 1.40041C25.4433 1.19423 25.0074 1.10587 24.5465 0.996897C24.3005 0.985116 24.0546 0.967444 23.8101 0.957135C23.6481 0.887919 23.492 0.70089 23.3536 0.611057C22.794 0.257617 21.3449 -0.508172 20.9325 0.505025C20.6674 1.14416 21.3257 1.77447 21.554 2.09845C21.7234 2.32377 21.9369 2.58149 22.0547 2.83479C22.1239 3.00562 22.1431 3.18087 22.2123 3.35906C22.3684 3.79202 22.5171 4.27506 22.7233 4.68004C22.8308 4.88622 22.9486 5.1027 23.087 5.28826C23.1666 5.39576 23.3021 5.44583 23.333 5.62255C23.1946 5.82284 23.1857 6.11442 23.1062 6.35889C22.7528 7.4737 22.8912 8.85212 23.3919 9.67239C23.5495 9.91686 23.925 10.4588 24.4272 10.2512C24.869 10.0744 24.7718 9.51482 24.8984 9.02148C24.9279 8.90366 24.9087 8.82561 24.9691 8.74609V8.76818C25.1075 9.04504 25.246 9.30865 25.3726 9.58551C25.676 10.0685 26.2062 10.5693 26.6494 10.9035C26.8851 11.0803 27.0721 11.3866 27.3666 11.4956V11.4661H27.3445C27.2812 11.3807 27.1973 11.3395 27.1177 11.2702C26.941 11.0935 26.7422 10.877 26.6023 10.6812C26.19 10.126 25.8262 9.51776 25.5022 8.88746C25.3402 8.5782 25.2047 8.24538 25.0752 7.94054C25.0162 7.82272 25.0162 7.646 24.9176 7.5871C24.7703 7.8021 24.5538 7.98913 24.4463 8.25421C24.2593 8.67834 24.2401 9.19967 24.1695 9.74161C24.1297 9.75192 24.1488 9.74161 24.1297 9.76223C23.8145 9.68565 23.707 9.35872 23.5892 9.0848C23.2947 8.38528 23.2461 7.26163 23.5009 6.45608C23.5701 6.24991 23.8646 5.59899 23.7468 5.40165C23.685 5.21462 23.4906 5.10712 23.3831 4.95543C23.2549 4.77282 23.118 4.53572 23.0296 4.3266C22.794 3.77583 22.6762 3.16614 22.4199 2.61536C22.3021 2.36059 22.0959 2.09404 21.9281 1.85988C21.741 1.5948 21.5349 1.40777 21.3861 1.09409C21.3375 0.986588 21.2683 0.808395 21.3464 0.690581C21.367 0.611057 21.4082 0.580132 21.4848 0.558042C21.6144 0.452009 21.9781 0.59044 22.1062 0.649347C22.47 0.796614 22.7763 0.935045 23.0812 1.14122C23.2196 1.23841 23.3683 1.42544 23.545 1.47404H23.7512C24.0664 1.54326 24.4213 1.49466 24.7158 1.58155C25.2386 1.74943 25.7099 1.99389 26.1325 2.25897C27.4226 3.07778 28.4829 4.23972 29.203 5.6255C29.3209 5.85229 29.3724 6.05994 29.4799 6.29556C29.6861 6.78154 29.9409 7.27194 30.15 7.74172C30.3561 8.20562 30.555 8.67834 30.851 9.06271C30.9982 9.26888 31.5902 9.37639 31.8553 9.48389C32.0512 9.57225 32.356 9.65325 32.5328 9.76076C32.8715 9.96693 33.2013 10.2026 33.5194 10.4293C33.6814 10.5413 34.1718 10.7872 34.2013 10.986Z" fill="black"/>
</svg>
