<svg width="24" height="24" viewBox="0 0 24 24" fill="none" xmlns="http://www.w3.org/2000/svg">
<path fill-rule="evenodd" clip-rule="evenodd" d="M22.4001 6.7405L12.0001 0.673828L1.6001 6.7405V17.2595L3.21024 18.1987L6.50032 16.8675C7.40683 16.5008 8.00016 15.6206 8.00016 14.6427V6.4H9.60016V14.6427C9.60016 16.2726 8.6113 17.7394 7.10045 18.3507L4.95731 19.2179L12.0001 23.3261L22.4001 17.2595V6.7405ZM11.2001 9.6C11.2001 7.83269 12.6328 6.4 14.4001 6.4H16.2668C17.8868 6.4 19.2001 7.7133 19.2001 9.33333V9.6H17.6001V9.33333C17.6001 8.59696 17.0031 8 16.2668 8H14.4001C13.5164 8 12.8001 8.71635 12.8001 9.6C12.8001 10.4836 13.5164 11.2 14.4001 11.2H16.0001C17.7675 11.2 19.2001 12.6327 19.2001 14.4C19.2001 16.1674 17.7675 17.6 16.0001 17.6H14.4001C12.6328 17.6 11.2001 16.1674 11.2001 14.4H12.8001C12.8001 15.2836 13.5164 16 14.4001 16H16.0001C16.8838 16 17.6001 15.2836 17.6001 14.4C17.6001 13.5164 16.8838 12.8 16.0001 12.8H14.4001C12.6328 12.8 11.2001 11.3673 11.2001 9.6Z" fill="black"/>
</svg>
