<svg width="24" height="24" viewBox="0 0 24 24" fill="none" xmlns="http://www.w3.org/2000/svg">
<path d="M4.5 1.5H19.5C21.15 1.5 22.5 2.85 22.5 4.5V19.5C22.5 21.15 21.15 22.5 19.5 22.5H4.5C2.85 22.5 1.5 21.15 1.5 19.5V4.5C1.5 2.85 2.85 1.5 4.5 1.5Z" fill="black"/>
<path d="M20.625 12C20.625 10.8 19.2 9.825 17.1 9.15C17.625 6.975 17.4 5.25 16.425 4.725C16.125 4.575 15.9 4.5 15.6 4.5C14.625 4.5 13.425 5.175 12.225 6.375C10.95 5.175 9.75 4.5 8.775 4.5C8.475 4.5 8.175 4.575 7.95 4.725C6.975 5.25 6.75 6.975 7.275 9.15C5.175 9.825 3.75 10.8 3.75 12C3.75 13.2 5.175 14.175 7.275 14.85C6.75 17.025 6.9 18.75 7.95 19.35C8.175 19.5 8.475 19.575 8.775 19.575C9.75 19.575 10.95 18.9 12.15 17.7C13.35 18.9 14.625 19.575 15.525 19.575C15.825 19.575 16.125 19.5 16.35 19.35C17.325 18.75 17.55 17.025 17.025 14.85C19.2 14.175 20.625 13.125 20.625 12ZM15.6 5.325C15.75 5.325 15.9 5.325 15.975 5.4C16.425 5.7 16.65 6.675 16.5 7.95C16.425 8.25 16.425 8.625 16.35 8.925C15.675 8.775 14.925 8.625 14.175 8.55C13.725 7.95 13.275 7.35 12.825 6.9C13.875 5.85 14.925 5.325 15.6 5.325ZM14.475 13.35C14.25 13.8 13.95 14.175 13.725 14.625C13.2 14.625 12.75 14.7 12.225 14.7C11.7 14.7 11.175 14.7 10.725 14.625C10.425 14.25 10.2 13.8 9.975 13.35C9.75 12.9 9.525 12.45 9.3 12C9.525 11.55 9.75 11.1 9.975 10.65C10.2 10.2 10.5 9.75 10.8 9.375C11.25 9.375 11.775 9.3 12.3 9.3C12.825 9.3 13.275 9.3 13.8 9.375C14.1 9.75 14.325 10.2 14.625 10.65C14.85 11.1 15.075 11.55 15.3 12C15 12.45 14.7 12.9 14.475 13.35ZM15.6 12.975C15.75 13.425 15.9 13.8 16.05 14.25C15.6 14.325 15.15 14.4 14.7 14.475C14.85 14.25 15 14.025 15.15 13.725C15.3 13.5 15.45 13.2 15.6 12.975ZM12.15 16.5C11.85 16.2 11.55 15.825 11.25 15.45C11.55 15.45 11.85 15.45 12.15 15.45C12.45 15.45 12.75 15.45 13.05 15.45C12.75 15.825 12.45 16.2 12.15 16.5ZM9.6 14.475C9.15 14.4 8.7 14.325 8.25 14.25C8.4 13.8 8.55 13.425 8.7 12.975C8.85 13.2 9 13.5 9.15 13.725C9.3 14.025 9.45 14.25 9.6 14.475ZM8.775 11.025C8.625 10.575 8.475 10.125 8.325 9.75C8.775 9.675 9.225 9.6 9.675 9.525C9.525 9.75 9.375 10.05 9.225 10.275C9 10.5 8.85 10.8 8.775 11.025ZM12.15 7.5C12.45 7.8 12.75 8.175 13.05 8.55C12.75 8.55 12.45 8.55 12.15 8.55C11.85 8.55 11.55 8.55 11.25 8.55C11.55 8.175 11.85 7.8 12.15 7.5ZM15.15 10.275C15 9.975 14.85 9.75 14.7 9.525C15.15 9.6 15.6 9.675 16.05 9.75C15.9 10.2 15.75 10.65 15.6 11.025C15.45 10.8 15.3 10.5 15.15 10.275ZM7.875 7.95C7.725 6.675 7.875 5.7 8.4 5.4C8.475 5.325 8.625 5.325 8.775 5.325C9.45 5.325 10.5 5.85 11.625 6.975C11.175 7.5 10.725 8.025 10.275 8.625C9.525 8.7 8.775 8.85 8.1 9C7.95 8.625 7.875 8.25 7.875 7.95ZM6.525 13.65C5.325 13.125 4.575 12.525 4.575 11.925C4.575 11.4 5.325 10.725 6.525 10.2C6.825 10.05 7.125 9.975 7.5 9.9C7.725 10.575 7.95 11.25 8.25 11.925C7.95 12.6 7.65 13.275 7.5 13.95C7.125 13.95 6.825 13.8 6.525 13.65ZM8.4 18.6C7.95 18.3 7.725 17.325 7.875 16.05C7.95 15.75 7.95 15.375 8.1 15C8.775 15.15 9.45 15.3 10.2 15.375C10.65 15.975 11.1 16.575 11.625 17.1C10.5 18.15 9.45 18.75 8.775 18.75C8.625 18.675 8.475 18.675 8.4 18.6ZM16.5 16.05C16.65 17.325 16.5 18.3 15.975 18.6C15.9 18.675 15.75 18.675 15.6 18.675C14.925 18.675 13.875 18.15 12.75 17.025C13.2 16.5 13.725 15.975 14.175 15.3C14.925 15.225 15.675 15.15 16.275 14.925C16.35 15.375 16.425 15.75 16.5 16.05ZM17.85 13.65C17.55 13.8 17.25 13.875 16.875 14.025C16.65 13.35 16.425 12.675 16.125 12C16.425 11.325 16.725 10.575 16.875 9.975C17.25 10.05 17.55 10.2 17.85 10.275C19.05 10.8 19.8 11.4 19.8 12C19.8 12.525 19.05 13.2 17.85 13.65Z" fill="white"/>
<path d="M12.2249 13.575C13.1249 13.575 13.7999 12.9 13.7999 12C13.7999 11.1 13.1249 10.425 12.2249 10.425C11.3249 10.425 10.6499 11.1 10.6499 12C10.6499 12.9 11.3249 13.575 12.2249 13.575Z" fill="white"/>
</svg>
