<svg width="24" height="24" viewBox="0 0 24 24" fill="none" xmlns="http://www.w3.org/2000/svg">
<g clip-path="url(#clip0_84_690)">
<path d="M12.0002 4C10.3586 4 8.94734 4.44306 7.83955 5.39259C6.73973 6.3353 6.02024 7.70766 5.62112 9.41821C5.534 9.79152 5.72397 10.1742 6.074 10.3305C6.42403 10.4868 6.83574 10.3728 7.05557 10.0588C7.56218 9.33504 8.068 8.90018 8.55402 8.67701C9.0247 8.46088 9.53206 8.41709 10.1132 8.57275C10.6997 8.72984 11.1536 9.1899 11.8664 9.96506L11.8894 9.99011C12.4267 10.5745 13.0821 11.2874 13.9785 11.8404C14.9087 12.4144 16.0662 12.8 17.6003 12.8C19.2417 12.8 20.6531 12.3569 21.7609 11.4074C22.8606 10.4647 23.5801 9.09232 23.9793 7.38178C24.0663 7.00846 23.8764 6.62582 23.5263 6.46952C23.1764 6.31322 22.7646 6.42717 22.5447 6.74122C22.0382 7.46494 21.5324 7.89979 21.0463 8.12298C20.5756 8.3391 20.0683 8.3829 19.4871 8.22723C18.9007 8.07014 18.4467 7.61008 17.734 6.83491L17.711 6.80986C17.1737 6.22549 16.5183 5.51261 15.6219 4.95954C14.6917 4.38562 13.5342 4 12.0002 4Z" fill="black"/>
<path d="M6.4001 11.2C4.75854 11.2 3.34725 11.6431 2.23946 12.5926C1.13963 13.5353 0.420147 14.9077 0.0210184 16.6183C-0.0660891 16.9915 0.123866 17.3741 0.473898 17.5304C0.82393 17.6867 1.23564 17.5728 1.45548 17.2587C1.96208 16.5351 2.4679 16.1002 2.95392 15.877C3.42461 15.6609 3.93195 15.6171 4.5131 15.7728C5.09957 15.9299 5.55355 16.3899 6.26629 17.1651L6.28931 17.1901C6.82656 17.7744 7.48198 18.4874 8.37838 19.0405C9.30856 19.6144 10.466 20 12.0001 20C13.6416 20 15.0529 19.557 16.1608 18.6074C17.2605 17.6647 17.98 16.2923 18.3792 14.5818C18.4662 14.2085 18.2763 13.8258 17.9262 13.6695C17.5763 13.5132 17.1645 13.6272 16.9446 13.9412C16.4381 14.665 15.9323 15.0998 15.4463 15.323C14.9756 15.5391 14.4682 15.5829 13.8871 15.4272C13.3006 15.2702 12.8466 14.8101 12.1339 14.0349L12.1109 14.0099C11.5736 13.4255 10.9182 12.7126 10.0218 12.1595C9.09163 11.5856 7.93413 11.2 6.4001 11.2Z" fill="black"/>
</g>
<defs>
<clipPath id="clip0_84_690">
<rect width="24" height="24" fill="white"/>
</clipPath>
</defs>
</svg>
