<svg width="24" height="24" viewBox="0 0 24 24" fill="none" xmlns="http://www.w3.org/2000/svg">
<g clip-path="url(#clip0_56_96)">
<path d="M0.228341 8.36915C0.228341 8.36915 -0.356212 7.94324 0.345251 7.37453L1.97956 5.89736C1.97956 5.89736 2.44721 5.40004 2.94164 5.83334L18.0231 17.375V22.9094C18.0231 22.9094 18.0158 23.7785 16.9124 23.6825L0.228341 8.36915Z" fill="black"/>
<path d="M4.11559 11.9367L0.228312 15.5089C0.228312 15.5089 -0.171133 15.8093 0.228312 16.346L2.03312 18.0053C2.03312 18.0053 2.46179 18.4706 3.09506 17.9413L7.21615 14.7827L4.11559 11.9367Z" fill="black"/>
<path d="M10.9399 11.9661L18.069 6.46359L18.0227 0.95862C18.0227 0.95862 17.7182 -0.242823 16.7026 0.382518L7.21582 9.11022L10.9399 11.9661Z" fill="black"/>
<path d="M16.912 23.69C17.326 24.1183 17.8278 23.978 17.8278 23.978L23.3837 21.2108C24.095 20.7208 23.9951 20.1127 23.9951 20.1127V3.58803C23.9951 2.86175 23.2595 2.61063 23.2595 2.61063L18.444 0.264377C17.3918 -0.392968 16.7026 0.382548 16.7026 0.382548C16.7026 0.382548 17.5891 -0.262484 18.0227 0.95865V22.8086C18.0227 22.9588 17.991 23.1065 17.9277 23.2394C17.801 23.4979 17.5258 23.7392 16.8657 23.6383L16.912 23.69Z" fill="black"/>
</g>
<defs>
<clipPath id="clip0_56_96">
<rect width="24" height="24" fill="white"/>
</clipPath>
</defs>
</svg>
